# xmcd CD database file
#
# Track frame offsets:
#	182
#	11892
#	22265
#	31722
#	40962
#	50850
#	60445
#	69592
#	78417
#	88775
#	100440
#	109162
#
# Disc length: 1555 seconds
#
# Revision: 2
# Processed by: cddbd v1.5.2PL0 Copyright (c) Steve Scherf et al.
# Submitted via: CDex 1.51
#
DISCID=a206110c
DTITLE=Doug and Rusty Kershaw - The Best Of Doug and Rusty Kershaw
DYEAR=1981
DGENRE=Country
TTITLE0=Louisiana Man
TTITLE1=Kaw Liga
TTITLE2=Diggy Liggy Lo
TTITLE3=(Our Own) Jole Blon
TTITLE4=Cajun Joe (The Bully Of The Bayou)
TTITLE5=The Love I Want
TTITLE6=Oh Love
TTITLE7=Why Don't You Love Me
TTITLE8=Hey Mae
TTITLE9=Your Crazy, Crazy Heart
TTITLE10=Sweet Thing (Tell Me That You Love Me)
TTITLE11=I Like You Like This
EXTD=YEAR: 1981
EXTT0=
EXTT1=
EXTT2=
EXTT3=
EXTT4=
EXTT5=
EXTT6=
EXTT7=
EXTT8=
EXTT9=
EXTT10=
EXTT11=
PLAYORDER=
